<svg style=".hover-svg:hover path {
      fill: #ffffff; /* Change to the desired color on hover */
    }" width="58" height="58" viewBox="0 0 58 58" fill="none" xmlns="http://www.w3.org/2000/svg">
<path d="M50.3731 31.6245C49.7383 31.6245 49.0747 31.4225 48.4399 31.2783C47.1544 30.995 45.8912 30.6189 44.6601 30.153C43.3215 29.666 41.8502 29.6913 40.5291 30.224C39.2081 30.7566 38.1307 31.7591 37.5044 33.0383L36.8696 34.3367C34.0593 32.7734 31.4768 30.8317 29.1945 28.566C26.9289 26.2837 24.9872 23.7013 23.4238 20.8909L24.6357 20.083C25.9149 19.4567 26.9174 18.3793 27.45 17.0583C27.9827 15.7373 28.008 14.2659 27.521 12.9273C27.0629 11.6936 26.687 10.4309 26.3957 9.14752C26.2515 8.51274 26.1361 7.8491 26.0495 7.18547C25.6991 5.15308 24.6346 3.31257 23.0476 1.99539C21.4607 0.678216 19.4556 -0.0290667 17.3934 0.000915534H8.73735C7.49385 -0.0107602 6.26243 0.245633 5.12693 0.752641C3.99142 1.25965 2.97849 2.00537 2.15709 2.93903C1.33568 3.87269 0.725096 4.97238 0.366888 6.16323C0.00868116 7.35407 -0.0887348 8.60812 0.0812725 9.84C1.61841 21.9279 7.13894 33.1592 15.7708 41.7597C24.4028 50.3603 35.654 55.8399 47.7474 57.3331H48.8438C50.9715 57.3362 53.0259 56.5556 54.6146 55.1402C55.5274 54.3238 56.2566 53.3229 56.7539 52.2038C57.2513 51.0847 57.5056 49.8728 57.4999 48.6481V39.9921C57.4646 37.9878 56.7347 36.058 55.435 34.532C54.1352 33.006 52.3461 31.9783 50.3731 31.6245ZM51.8158 48.9367C51.8152 49.3464 51.7275 49.7512 51.5583 50.1244C51.3892 50.4975 51.1425 50.8303 50.8347 51.1007C50.5123 51.3791 50.1353 51.587 49.7279 51.7112C49.3205 51.8354 48.8916 51.8732 48.4687 51.822C37.6628 50.4365 27.6256 45.493 19.9404 37.7712C12.2552 30.0494 7.35933 19.9888 6.02511 9.17637C5.97919 8.75372 6.01943 8.32614 6.14342 7.91948C6.2674 7.51282 6.47254 7.13552 6.74645 6.81037C7.01684 6.5026 7.34967 6.25592 7.72279 6.08677C8.09592 5.91762 8.50079 5.82987 8.91047 5.82935H17.5665C18.2375 5.81442 18.8927 6.03386 19.4194 6.44991C19.946 6.86595 20.3111 7.45257 20.4519 8.10879C20.5673 8.89745 20.7116 9.6765 20.8847 10.4459C21.218 11.9669 21.6616 13.4617 22.212 14.9182L18.1725 16.7937C17.8271 16.9522 17.5164 17.1773 17.2583 17.4562C17.0001 17.7351 16.7996 18.0622 16.6682 18.4188C16.5369 18.7753 16.4772 19.1543 16.4928 19.534C16.5083 19.9137 16.5986 20.2866 16.7586 20.6313C20.9113 29.5261 28.0613 36.6762 36.9562 40.8288C37.6586 41.1174 38.4466 41.1174 39.149 40.8288C39.5089 40.7001 39.8396 40.5012 40.1219 40.2436C40.4042 39.986 40.6326 39.675 40.7937 39.3284L42.5826 35.2889C44.0742 35.8223 45.5966 36.2656 47.1415 36.6162C47.9109 36.7893 48.6899 36.9336 49.4786 37.049C50.1348 37.1898 50.7214 37.5549 51.1375 38.0815C51.5535 38.6082 51.773 39.2634 51.758 39.9343L51.8158 48.9367Z" fill="#0652DD"/>
</svg>
