<svg width="57" height="46" viewBox="0 0 57 46" fill="none" xmlns="http://www.w3.org/2000/svg">
<path d="M48.45 0H8.55C6.2824 0 4.10767 0.908703 2.50424 2.5262C0.900801 4.14371 0 6.33751 0 8.625V37.375C0 39.6625 0.900801 41.8563 2.50424 43.4738C4.10767 45.0913 6.2824 46 8.55 46H48.45C50.7176 46 52.8923 45.0913 54.4958 43.4738C56.0992 41.8563 57 39.6625 57 37.375V8.625C57 6.33751 56.0992 4.14371 54.4958 2.5262C52.8923 0.908703 50.7176 0 48.45 0ZM8.55 5.75H48.45C49.2059 5.75 49.9308 6.0529 50.4653 6.59207C50.9997 7.13124 51.3 7.8625 51.3 8.625L28.5 22.655L5.7 8.625C5.7 7.8625 6.00027 7.13124 6.53475 6.59207C7.06922 6.0529 7.79413 5.75 8.55 5.75ZM51.3 37.375C51.3 38.1375 50.9997 38.8688 50.4653 39.4079C49.9308 39.9471 49.2059 40.25 48.45 40.25H8.55C7.79413 40.25 7.06922 39.9471 6.53475 39.4079C6.00027 38.8688 5.7 38.1375 5.7 37.375V15.18L27.018 28.3188C27.4513 28.5711 27.9427 28.7039 28.443 28.7039C28.9433 28.7039 29.4347 28.5711 29.868 28.3188L51.3 15.18V37.375Z" fill="#0652DD"/>
</svg>
